#!OML:ASF H:\ManfredETheater\Project 1\Capture day 1\Session 1\subject.ASF
:FULLY-SPECIFIED
:DEGREES
188
root 5.56097 10.9976 -3.8589 48.6001 -86.6196 -29.5676
lowerback 68.2392 1.44654 4.56286
upperback 11.068 1.44443 -0.436283
thorax -8.80264 -0.405775 -2.8528
lowerneck -15.8707 37.9127 0.514564
upperneck 3.16979 59.6135 -1.25968
head 31.1699 -42.5309 145.574
rclavicle -6.36111e-014 -5.32991e-015
rhumerus -1.66133 -7.57772 -43.9709
rradius 74.462
rwrist -23.5649
rhand -25.3813 3.06769
rfingers 7.12502
rthumb 1.14335 -26.909
lclavicle -6.36111e-014 -5.32991e-015
lhumerus -46.9328 5.1781 79.364
lradius 140.959
lwrist -13.0786
lhand -32.3285 6.72663
lfingers 7.12502
lthumb -5.56593 36.6335
rfemur -78.4793 -24.7641 -0.615037
rtibia 107.647
rfoot -30.1023 -9.63064
rtoes -36.129
lfemur -73.3304 35.1046 13.7602
ltibia 85.8189
lfoot -18.4573 -28.0296
ltoes -22.0586
189
root 5.54625 10.9858 -3.60838 56.9948 -86.588 -38.1608
lowerback 68.2773 1.99353 4.20309
upperback 11.0841 1.75251 -0.50493
thorax -8.78288 -0.282115 -2.91899
lowerneck -15.7622 38.0148 0.704868
upperneck 3.24155 59.6523 -1.16317
head 31.1469 -42.3105 145.571
rclavicle -3.97569e-014 -3.96575e-014
rhumerus -3.1005 -7.70917 -44.2954
rradius 74.1897
rwrist -23.7621
rhand -24.9801 3.01162
rfingers 7.12502
rthumb 1.53083 -26.9626
lclavicle -3.97569e-014 -3.96575e-014
lhumerus -47.1492 4.4827 79.582
lradius 141.851
lwrist -14.3705
lhand -32.2544 6.91105
lfingers 7.12502
lthumb -5.4944 36.8198
rfemur -77.2676 -24.2772 -1.79129
rtibia 106.406
rfoot -29.5647 -9.5156
rtoes -36.487
lfemur -74.4207 36.0065 12.9332
ltibia 87.7438
lfoot -19.1663 -28.8376
ltoes -20.6119
190
root 5.53186 10.98 -3.35441 64.4392 -86.5196 -45.6718
lowerback 68.1063 2.53829 3.83258
upperback 11.1297 2.05905 -0.564147
thorax -8.73749 -0.15421 -2.97177
lowerneck -15.6341 38.0882 0.868039
upperneck 3.3211 59.6676 -1.06284
head 31.1148 -42.1074 145.588
rclavicle 1.98785e-014 -4.8578e-015
rhumerus -4.56276 -7.92582 -44.6112
rradius 73.8793
rwrist -23.9661
rhand -24.7026 2.9022
rfingers 7.12502
rthumb 1.79884 -27.07
lclavicle 1.98785e-014 -4.8578e-015
lhumerus -47.302 3.83711 79.8234
lradius 142.465
lwrist -15.4501
lhand -32.2986 7.03123
lfingers 7.12502
lthumb -5.53707 36.9389
rfemur -76.1945 -23.8114 -2.94938
rtibia 105.086
rfoot -28.8792 -9.37789
rtoes -36.7702
lfemur -75.5565 36.8484 11.9569
ltibia 89.5316
lfoot -19.9801 -29.5487
ltoes -19.1507
191
root 5.51794 10.9807 -3.09625 70.9508 -86.3931 -52.141
lowerback 67.7689 3.05175 3.49075
upperback 11.1929 2.36506 -0.602569
thorax -8.67651 -0.0231787 -3.0135
lowerneck -15.4809 38.1325 1.00685
upperneck 3.40715 59.6498 -0.957847
head 31.0811 -41.944 145.615
rclavicle 5.725e-014 1.97418e-014
rhumerus -6.01923 -8.22433 -44.902
rradius 73.5262
rwrist -24.1613
rhand -24.5053 2.72592
rfingers 7.12502
rthumb 1.98935 -27.2446
lclavicle 5.725e-014 1.97418e-014
lhumerus -47.398 3.25093 80.1268
lradius 142.867
lwrist -16.0615
lhand -32.4632 7.06371
lfingers 7.12502
lthumb -5.696 36.9671
rfemur -75.2199 -23.3673 -4.06916
rtibia 103.691
rfoot -28.0205 -9.22259
rtoes -37.0153
lfemur -76.7407 37.5996 10.8855
ltibia 91.1818
lfoot -20.8531 -30.2123
ltoes -17.7068
192
root 5.50451 10.9883 -2.83388 76.458 -86.1982 -57.5365
lowerback 67.3274 3.51308 3.20329
upperback 11.2628 2.66577 -0.618469
thorax -8.60873 0.107559 -3.04964
lowerneck -15.3004 38.1538 1.13081
upperneck 3.49528 59.5966 -0.849596
head 31.0522 -41.836 145.643
rclavicle 1.22451e-013 -1.74682e-014
rhumerus -7.44201 -8.60011 -45.1677
rradius 73.1354
rwrist -24.3325
rhand -24.3477 2.4447
rfingers 7.12502
rthumb 2.1416 -27.5243
lclavicle 1.22451e-013 -1.74682e-014
lhumerus -47.4386 2.7168 80.5078
lradius 143.126
lwrist -16.0541
lhand -32.7169 6.99324
lfingers 7.12502
lthumb -5.94093 36.89
rfemur -74.2935 -22.9258 -5.14122
rtibia 102.228
rfoot -26.9615 -9.08878
rtoes -37.3176
lfemur -77.9637 38.2431 9.758
ltibia 92.7091
lfoot -21.7945 -30.8147
ltoes -16.5048
